<?xml version="1.0" encoding="UTF-8"?>
<svg id="Layer_2" data-name="Layer 2" xmlns="http://www.w3.org/2000/svg" xmlns:xlink="http://www.w3.org/1999/xlink" viewBox="0 0 801 801">
  <defs>
    <style>
      .cls-1 {
        fill: url(#New_Gradient_Swatch_1);
        stroke: #000;
        stroke-miterlimit: 10;
      }

      .cls-2 {
        fill: #fff;
      }
    </style>
    <linearGradient id="New_Gradient_Swatch_1" data-name="New Gradient Swatch 1" x1="-44.82" y1="657.61" x2="845.82" y2="143.39" gradientUnits="userSpaceOnUse">
      <stop offset="0" stop-color="#33ffd6"/>
      <stop offset=".52" stop-color="#81d8d0"/>
      <stop offset="1" stop-color="#4176b0"/>
    </linearGradient>
  </defs>
  <rect class="cls-1" x=".5" y=".5" width="800" height="800" rx="88" ry="88"/>
  <g>
    <path class="cls-2" d="M386.71,165.06c2.25,2.67,1.69,5.6-1.69,8.8l-6.77,4.8c-2.83,0-4.65.68-5.5,2-.85,1.34-2.68,2.54-5.5,3.6-3.95,1.6-6.91,3.08-8.88,4.4-1.98,1.34-6.92,2.54-14.81,3.6-18.06-2.66-38.08-3.86-60.08-3.6-22,.28-40.34.94-55,2,3.39,24,5.35,49.34,5.92,76,.56,26.68.42,53.74-.42,81.2-.85,27.48-1.98,54.54-3.39,81.2-1.41,26.67-2.12,52-2.12,76v13.6c-2.83-9.06-5.08-18.92-6.77-29.6-1.14-3.72-1.98-7.06-2.54-10-.57-2.93-1.41-6.26-2.54-10-7.91-43.2-11.85-88.8-11.85-136.8s3.09-94.66,9.31-140c-32.16,4.27-63.19,8.8-93.08,13.6-29.91,4.8-59.53,11.74-88.85,20.8-3.38,1.08-6.64,1.88-9.73,2.4-3.11.54-6.35,1.34-9.73,2.4-2.83-2.66-5.37-4.52-7.62-5.6-2.26-1.06-3.68-3.73-4.23-8-1.14-5.86.56-10.52,5.08-14,4.51-3.46,9.02-7.33,13.54-11.6,1.69-.52,2.82-1.86,3.39-4,.56-2.12,1.27-4.26,2.12-6.4.85-2.12,1.55-4.12,2.12-6,.56-1.86,1.69-3.06,3.39-3.6,27.63-9.06,56.7-16.26,87.16-21.6,30.46-5.32,61.06-8.52,91.81-9.6,30.74-1.06,61.2.27,91.39,4,30.17,3.74,58.81,10.4,85.89,20Z"/>
    <path class="cls-2" d="M727.73,270.66c5.63,1.08,9.73,2,12.27,2.8,2.54.8,4.09,2.54,4.65,5.2l-14.39,19.2c-3.39,2.67-7.76,4.8-13.12,6.4-5.37,1.6-10.3,2.94-14.81,4-12.98,1.08-27.37,1.88-43.16,2.4-15.8.54-32.16,1.2-49.08,2-16.92.8-33.99,1.47-51.2,2-17.21.54-33.42,1.08-48.66,1.6,0,22.4.13,43.2.42,62.4.28,19.2.98,34.68,2.12,46.4,14.09-2.12,30.46-5.6,49.08-10.4,18.62-4.8,38.64-10.4,60.08-16.8,21.43-6.4,43.71-13.33,66.85-20.8,23.13-7.46,45.7-15.2,67.7-23.2,7.89-2.66,15.36-4.92,22.42-6.8,7.05-1.86,14.24-3.86,21.58-6,0,2.14-.29,3.6-.85,4.4-.57.8-1.42,1.74-2.54,2.8-1.69,4.28-4.23,8-7.62,11.2-3.39,2.67-6.64,5.07-9.73,7.2-3.11,2.14-5.79,4-8.04,5.6-2.83,2.14-5.22,5.34-7.19,9.6-1.98,4.27-6.07,8.27-12.27,12-36.68,21.34-73.62,38.94-110.85,52.8-37.23,13.88-76.73,26.4-118.47,37.6-9.6,2.68-17.21,3.08-22.85,1.2-5.65-1.86-10.45-6.8-14.39-14.8-1.14-4.26-2.54-7.72-4.23-10.4-1.69-2.66-5.65-6.12-11.85-10.4-2.83-2.12-4.23-5.73-4.23-10.8s-.29-10.53-.85-16.4c-1.14-12.8-1.84-28.4-2.12-46.8-.29-18.4-.14-38,.42-58.8h-22c-5.08-.53-8.75-1.2-11-2-2.26-.8-5.65-3.33-10.15-7.6,0-3.73.98-6.12,2.96-7.2,1.97-1.06,3.81-2.66,5.5-4.8,1.69-2.12,3.24-4.53,4.65-7.2,1.4-2.66,3.52-4.52,6.35-5.6,2.82-.52,6.35-1.06,10.58-1.6,4.23-.53,9.16-1.33,14.81-2.4,1.12-19.72,2.12-39.46,2.96-59.2.85-19.73,1.82-38.12,2.96-55.2h-11.85c-6.77,0-11.42-.66-13.96-2-2.54-1.32-4.38-2.66-5.5-4-1.14-1.32-1.98-2.66-2.54-4-.57-1.32-2.26-2.26-5.08-2.8-4.52-.52-6.77-1.33-6.77-2.4s-1.14-2.12-3.39-3.2c-2.26-1.6-1.27-3.46,2.96-5.6,4.23-2.12,8.59-6.4,13.12-12.8,3.94-3.73,6.35-6.66,7.19-8.8.85-2.12,4.36-4.52,10.58-7.2,5.63-2.66,16.36-4.26,32.16-4.8,15.79-.52,33.56-.4,53.31.4,19.74.8,39.9,2.14,60.5,4,20.59,1.88,38.21,4.14,52.89,6.8,9.02,2.14,17.2,4.67,24.54,7.6,7.32,2.94,14.39,6.8,21.16,11.6,0,1.6-1.27,2.54-3.81,2.8-2.54.27-4.38.94-5.5,2-2.26,1.6-4.52,2.8-6.77,3.6-2.26.8-4.23,1.74-5.92,2.8-2.26,1.08-4.52,1.88-6.77,2.4-9.03,2.68-18.48,4.94-28.35,6.8-9.88,1.88-20.88,3.34-33,4.4-12.14,1.08-26.23,1.74-42.31,2-16.08.27-34.56.4-55.43.4-.57,15.48-.99,32.54-1.27,51.2-.29,18.67-.42,37.88-.42,57.6,27.08-2.66,57.12-4.93,90.12-6.8,33-1.86,63.89-3.06,92.66-3.6,6.2,0,12.12,1.34,17.77,4,5.63,2.68,11.28,4,16.92,4Z"/>
  </g>
  <path d="M409.46,761.17c-9.32,4.66-20.65,7.33-25.31,7.33-45.29,0-72.59-22.64-72.59-78.59v-190.48h-39.29l-1.33-4,11.32-16.65h29.3v-54.61c22.64-11.99,50.62-32.63,70.6-49.28l7.33.67c-.67,19.98-2.66,65.93-2,103.23h59.27c2.66,4,.67,15.98-2.66,20.65h-56.61v176.49c0,49.28,18.65,59.27,34.63,59.27,6.66,0,17.98-2,25.31-5.33l3.33,9.99-41.29,21.31Z"/>
</svg>